<svg width="803" height="241" viewBox="0 0 803 241" fill="none" xmlns="http://www.w3.org/2000/svg">
<path d="M302.932 127.283C296.932 127.283 292.372 125.303 289.252 121.343C286.132 117.383 283.972 111.503 282.772 103.703C281.692 95.7835 281.152 86.0035 281.152 74.3635C281.152 70.1635 281.212 66.2035 281.332 62.4835C281.452 58.7635 281.572 55.2835 281.692 52.0435C267.292 51.3235 256.732 49.2835 250.012 45.9235C243.292 42.5635 239.932 36.7435 239.932 28.4635C239.932 18.1435 245.152 11.1835 255.592 7.58348C266.152 3.98348 281.992 2.18348 303.112 2.18348C324.352 2.18348 340.312 3.98348 350.992 7.58348C361.792 11.1835 367.192 18.1435 367.192 28.4635C367.192 36.6235 363.772 42.4435 356.932 45.9235C350.212 49.2835 339.712 51.3235 325.432 52.0435C325.672 55.2835 325.852 58.7635 325.972 62.4835C326.092 66.2035 326.152 70.1635 326.152 74.3635C326.152 92.7235 324.532 106.163 321.292 114.683C318.052 123.083 311.932 127.283 302.932 127.283ZM394.272 127.643C385.272 127.643 377.352 125.903 370.512 122.423C363.792 118.823 358.512 113.963 354.672 107.843C350.952 101.603 349.092 94.4635 349.092 86.4235C349.092 78.6235 350.952 71.4235 354.672 64.8235C358.512 58.2235 363.732 52.9435 370.332 48.9835C377.052 45.0235 384.732 43.0435 393.372 43.0435C401.412 43.0435 408.312 44.6635 414.072 47.9035C419.832 51.1435 424.212 55.2835 427.212 60.3235C430.332 65.2435 431.892 70.4635 431.892 75.9835C431.892 81.5035 430.632 86.0635 428.112 89.6635C425.592 93.1435 422.292 95.8435 418.212 97.7635C414.252 99.5635 409.992 100.763 405.432 101.363C400.872 101.963 396.492 102.083 392.292 101.723C388.092 101.243 384.552 100.523 381.672 99.5635C383.832 103.043 386.532 105.443 389.772 106.763C393.132 107.963 396.612 108.503 400.212 108.383C403.932 108.143 407.292 107.723 410.292 107.123C414.012 106.283 417.072 106.463 419.472 107.663C421.872 108.863 423.132 110.783 423.252 113.423C423.372 115.583 422.592 117.743 420.912 119.903C419.352 122.063 416.472 123.923 412.272 125.483C408.072 126.923 402.072 127.643 394.272 127.643ZM382.212 77.6035C383.412 79.5235 385.152 80.9035 387.432 81.7435C389.712 82.4635 391.992 82.7035 394.272 82.4635C396.672 82.2235 398.652 81.5635 400.212 80.4835C401.892 79.4035 402.732 77.9035 402.732 75.9835C402.732 73.9435 401.892 72.1435 400.212 70.5835C398.652 68.9035 396.132 68.0635 392.652 68.0635C389.292 68.0635 386.712 69.1435 384.912 71.3035C383.112 73.3435 382.212 75.4435 382.212 77.6035ZM508.434 127.643C503.634 127.643 500.214 126.323 498.174 123.683C496.254 120.923 495.114 117.503 494.754 113.423C494.394 109.223 494.214 105.023 494.214 100.823C494.214 94.4635 493.314 89.3635 491.514 85.5235C489.714 81.5635 486.534 79.5835 481.974 79.5835C477.894 79.5835 474.894 81.5635 472.974 85.5235C471.054 89.3635 470.094 94.4635 470.094 100.823C470.094 105.023 469.914 109.163 469.554 113.243C469.314 117.323 468.234 120.743 466.314 123.503C464.394 126.143 460.914 127.463 455.874 127.463C452.154 127.463 449.034 126.083 446.514 123.323C444.114 120.563 442.254 116.963 440.934 112.523C439.614 108.083 438.654 103.283 438.054 98.1235C437.574 92.9635 437.334 87.9835 437.334 83.1835C437.334 78.3835 437.574 73.4635 438.054 68.4235C438.534 63.3835 439.374 58.7035 440.574 54.3835C441.894 50.0635 443.754 46.5835 446.154 43.9435C448.554 41.3035 451.674 39.9835 455.514 39.9835C462.354 39.9835 466.614 43.1035 468.294 49.3435C469.734 47.7835 472.014 46.3435 475.134 45.0235C478.374 43.5835 482.034 42.8635 486.114 42.8635C495.354 42.8635 502.914 45.2035 508.794 49.8835C514.674 54.5635 518.934 61.0435 521.574 69.3235C524.334 77.4835 525.654 86.9635 525.534 97.7635C525.534 103.283 524.994 108.323 523.914 112.883C522.954 117.323 521.214 120.923 518.694 123.683C516.294 126.323 512.874 127.643 508.434 127.643ZM573.866 127.643C564.986 127.643 557.306 125.543 550.826 121.343C544.466 117.143 539.546 111.683 536.066 104.963C532.706 98.2435 531.026 91.2235 531.026 83.9035C531.026 74.5435 532.886 66.8635 536.606 60.8635C540.446 54.8635 545.306 50.4235 551.186 47.5435C557.066 44.5435 563.186 43.0435 569.546 43.0435C572.546 43.0435 575.606 43.4035 578.726 44.1235C581.846 44.7235 584.786 45.8035 587.546 47.3635C587.066 42.2035 585.986 37.1635 584.306 32.2435C582.746 27.2035 581.966 22.1035 581.966 16.9435C581.966 11.6635 583.586 7.76348 586.826 5.24348C590.066 2.72348 593.546 1.46348 597.266 1.46348C601.586 1.46348 605.306 2.84348 608.426 5.60348C611.546 8.36348 614.186 12.0235 616.346 16.5835C618.626 21.1435 620.426 26.3035 621.746 32.0635C623.066 37.7035 624.026 43.5235 624.626 49.5235C625.226 55.5235 625.526 61.2835 625.526 66.8035C625.526 68.6035 625.406 71.3635 625.166 75.0835C625.046 78.8035 624.506 82.9435 623.546 87.5035C622.586 92.0635 621.026 96.6835 618.866 101.363C616.826 106.043 613.886 110.363 610.046 114.323C606.326 118.283 601.526 121.523 595.646 124.043C589.766 126.443 582.506 127.643 573.866 127.643ZM574.946 99.2035C578.186 99.2035 581.006 98.0035 583.406 95.6035C585.806 93.0835 587.006 90.1435 587.006 86.7835C587.006 83.4235 585.806 80.4835 583.406 77.9635C581.006 75.4435 578.186 74.1835 574.946 74.1835C571.706 74.1835 568.826 75.4435 566.306 77.9635C563.906 80.4835 562.706 83.4235 562.706 86.7835C562.706 90.1435 563.906 93.0835 566.306 95.6035C568.826 98.0035 571.706 99.2035 574.946 99.2035ZM676.225 127.643C667.225 127.643 659.305 125.903 652.465 122.423C645.745 118.823 640.465 113.963 636.625 107.843C632.905 101.603 631.045 94.4635 631.045 86.4235C631.045 78.6235 632.905 71.4235 636.625 64.8235C640.465 58.2235 645.685 52.9435 652.285 48.9835C659.005 45.0235 666.685 43.0435 675.325 43.0435C683.365 43.0435 690.265 44.6635 696.025 47.9035C701.785 51.1435 706.165 55.2835 709.165 60.3235C712.285 65.2435 713.845 70.4635 713.845 75.9835C713.845 81.5035 712.585 86.0635 710.065 89.6635C707.545 93.1435 704.245 95.8435 700.165 97.7635C696.205 99.5635 691.945 100.763 687.385 101.363C682.825 101.963 678.445 102.083 674.245 101.723C670.045 101.243 666.505 100.523 663.625 99.5635C665.785 103.043 668.485 105.443 671.725 106.763C675.085 107.963 678.565 108.503 682.165 108.383C685.885 108.143 689.245 107.723 692.245 107.123C695.965 106.283 699.025 106.463 701.425 107.663C703.825 108.863 705.085 110.783 705.205 113.423C705.325 115.583 704.545 117.743 702.865 119.903C701.305 122.063 698.425 123.923 694.225 125.483C690.025 126.923 684.025 127.643 676.225 127.643ZM664.165 77.6035C665.365 79.5235 667.105 80.9035 669.385 81.7435C671.665 82.4635 673.945 82.7035 676.225 82.4635C678.625 82.2235 680.605 81.5635 682.165 80.4835C683.845 79.4035 684.685 77.9035 684.685 75.9835C684.685 73.9435 683.845 72.1435 682.165 70.5835C680.605 68.9035 678.085 68.0635 674.605 68.0635C671.245 68.0635 668.665 69.1435 666.865 71.3035C665.065 73.3435 664.165 75.4435 664.165 77.6035ZM740.305 127.643C736.225 127.643 732.865 126.323 730.225 123.683C727.705 120.923 725.785 117.263 724.465 112.703C723.145 108.143 722.245 102.923 721.765 97.0435C721.285 91.1635 721.045 85.1035 721.045 78.8635C721.045 74.6635 721.105 70.4035 721.225 66.0835C721.465 61.6435 722.065 57.5635 723.025 53.8435C724.105 50.1235 725.845 47.1235 728.245 44.8435C730.765 42.4435 734.305 41.2435 738.865 41.2435C742.105 41.2435 745.045 42.0235 747.685 43.5835C750.325 45.0235 752.005 47.2435 752.725 50.2435C755.485 47.7235 758.965 45.9235 763.165 44.8435C767.485 43.6435 771.925 43.0435 776.485 43.0435C780.325 43.0435 784.225 44.0035 788.185 45.9235C792.145 47.7235 795.505 50.2435 798.265 53.4835C801.025 56.7235 802.405 60.3835 802.405 64.4635C802.405 67.9435 801.085 71.2435 798.445 74.3635C795.925 77.4835 792.325 79.0435 787.645 79.0435C785.605 79.0435 783.925 78.8035 782.605 78.3235C781.285 77.7235 780.025 77.1835 778.825 76.7035C777.625 76.2235 776.185 75.9835 774.505 75.9835C770.065 75.9835 765.985 77.7835 762.265 81.3835C758.665 84.8635 756.865 89.6035 756.865 95.6035C756.865 98.7235 756.745 102.143 756.505 105.863C756.385 109.463 755.845 112.943 754.885 116.303C754.045 119.663 752.485 122.423 750.205 124.583C747.925 126.623 744.625 127.643 740.305 127.643Z" fill="#F9B00B"/>
<path d="M369.776 214.643L353.01 185.858H341.9V214.643H332.709V144.246H355.434C360.753 144.246 365.231 145.155 368.867 146.973C372.57 148.791 375.331 151.249 377.149 154.346C378.967 157.444 379.876 160.979 379.876 164.951C379.876 169.799 378.462 174.075 375.634 177.778C372.873 181.482 368.699 183.939 363.11 185.151L380.785 214.643H369.776ZM341.9 178.485H355.434C360.417 178.485 364.154 177.273 366.645 174.849C369.136 172.358 370.382 169.059 370.382 164.951C370.382 160.777 369.136 157.545 366.645 155.255C364.221 152.966 360.484 151.821 355.434 151.821H341.9V178.485ZM444.657 184.848C444.657 186.599 444.556 188.451 444.354 190.403H400.116C400.453 195.857 402.305 200.133 405.671 203.23C409.105 206.26 413.246 207.775 418.094 207.775C422.067 207.775 425.366 206.866 427.992 205.048C430.686 203.163 432.571 200.672 433.648 197.574H443.546C442.065 202.894 439.102 207.237 434.658 210.603C430.214 213.903 424.693 215.552 418.094 215.552C412.842 215.552 408.129 214.374 403.954 212.017C399.847 209.661 396.615 206.328 394.258 202.018C391.902 197.642 390.723 192.592 390.723 186.868C390.723 181.145 391.868 176.129 394.157 171.819C396.447 167.51 399.645 164.211 403.752 161.921C407.927 159.565 412.708 158.386 418.094 158.386C423.346 158.386 427.992 159.531 432.032 161.82C436.072 164.11 439.17 167.274 441.324 171.314C443.546 175.287 444.657 179.798 444.657 184.848ZM435.163 182.929C435.163 179.428 434.389 176.432 432.84 173.94C431.292 171.382 429.171 169.463 426.477 168.183C423.851 166.837 420.922 166.163 417.69 166.163C413.044 166.163 409.072 167.645 405.772 170.607C402.54 173.57 400.689 177.677 400.217 182.929H435.163ZM453.355 186.868C453.355 181.145 454.5 176.162 456.789 171.92C459.079 167.611 462.243 164.278 466.283 161.921C470.391 159.565 475.07 158.386 480.322 158.386C487.123 158.386 492.712 160.036 497.088 163.335C501.532 166.635 504.461 171.213 505.875 177.071H495.977C495.035 173.705 493.183 171.045 490.422 169.092C487.729 167.14 484.362 166.163 480.322 166.163C475.07 166.163 470.828 167.981 467.596 171.617C464.364 175.186 462.748 180.27 462.748 186.868C462.748 193.534 464.364 198.685 467.596 202.321C470.828 205.957 475.07 207.775 480.322 207.775C484.362 207.775 487.729 206.833 490.422 204.947C493.116 203.062 494.967 200.369 495.977 196.867H505.875C504.394 202.523 501.431 207.068 496.987 210.502C492.543 213.869 486.988 215.552 480.322 215.552C475.07 215.552 470.391 214.374 466.283 212.017C462.243 209.661 459.079 206.328 456.789 202.018C454.5 197.709 453.355 192.659 453.355 186.868ZM522.886 150.306C521.135 150.306 519.654 149.7 518.442 148.488C517.23 147.276 516.624 145.795 516.624 144.044C516.624 142.294 517.23 140.812 518.442 139.6C519.654 138.388 521.135 137.782 522.886 137.782C524.569 137.782 525.983 138.388 527.128 139.6C528.34 140.812 528.946 142.294 528.946 144.044C528.946 145.795 528.34 147.276 527.128 148.488C525.983 149.7 524.569 150.306 522.886 150.306ZM527.33 159.295V214.643H518.139V159.295H527.33ZM552.185 169.496C554.003 166.332 556.697 163.706 560.265 161.618C563.901 159.464 568.11 158.386 572.89 158.386C577.806 158.386 582.25 159.565 586.222 161.921C590.262 164.278 593.427 167.611 595.716 171.92C598.006 176.162 599.15 181.111 599.15 186.767C599.15 192.356 598.006 197.339 595.716 201.715C593.427 206.092 590.262 209.492 586.222 211.916C582.25 214.34 577.806 215.552 572.89 215.552C568.177 215.552 564.002 214.509 560.366 212.421C556.798 210.267 554.071 207.607 552.185 204.442V240.903H542.994V159.295H552.185V169.496ZM589.757 186.767C589.757 182.593 588.916 178.957 587.232 175.859C585.549 172.762 583.26 170.405 580.364 168.789C577.536 167.173 574.405 166.365 570.971 166.365C567.605 166.365 564.474 167.207 561.578 168.89C558.75 170.506 556.461 172.897 554.71 176.061C553.027 179.159 552.185 182.761 552.185 186.868C552.185 191.043 553.027 194.713 554.71 197.877C556.461 200.975 558.75 203.365 561.578 205.048C564.474 206.664 567.605 207.472 570.971 207.472C574.405 207.472 577.536 206.664 580.364 205.048C583.26 203.365 585.549 200.975 587.232 197.877C588.916 194.713 589.757 191.009 589.757 186.767ZM661.748 184.848C661.748 186.599 661.647 188.451 661.445 190.403H617.207C617.544 195.857 619.396 200.133 622.762 203.23C626.196 206.26 630.337 207.775 635.185 207.775C639.158 207.775 642.457 206.866 645.083 205.048C647.777 203.163 649.662 200.672 650.739 197.574H660.637C659.156 202.894 656.193 207.237 651.749 210.603C647.305 213.903 641.784 215.552 635.185 215.552C629.933 215.552 625.22 214.374 621.045 212.017C616.938 209.661 613.706 206.328 611.349 202.018C608.993 197.642 607.814 192.592 607.814 186.868C607.814 181.145 608.959 176.129 611.248 171.819C613.538 167.51 616.736 164.211 620.843 161.921C625.018 159.565 629.799 158.386 635.185 158.386C640.437 158.386 645.083 159.531 649.123 161.82C653.163 164.11 656.261 167.274 658.415 171.314C660.637 175.287 661.748 179.798 661.748 184.848ZM652.254 182.929C652.254 179.428 651.48 176.432 649.931 173.94C648.383 171.382 646.262 169.463 643.568 168.183C640.942 166.837 638.013 166.163 634.781 166.163C630.135 166.163 626.163 167.645 622.863 170.607C619.631 173.57 617.78 177.677 617.308 182.929H652.254ZM693.474 215.552C689.232 215.552 685.428 214.845 682.061 213.431C678.694 211.95 676.035 209.93 674.082 207.371C672.129 204.745 671.052 201.749 670.85 198.382H680.344C680.613 201.143 681.893 203.399 684.182 205.149C686.539 206.9 689.602 207.775 693.373 207.775C696.874 207.775 699.635 207.001 701.655 205.452C703.675 203.904 704.685 201.951 704.685 199.594C704.685 197.17 703.608 195.386 701.453 194.241C699.298 193.029 695.965 191.851 691.454 190.706C687.347 189.629 683.98 188.552 681.354 187.474C678.795 186.33 676.573 184.68 674.688 182.525C672.87 180.303 671.961 177.408 671.961 173.839C671.961 171.011 672.803 168.419 674.486 166.062C676.169 163.706 678.56 161.854 681.657 160.507C684.754 159.093 688.289 158.386 692.262 158.386C698.389 158.386 703.338 159.935 707.109 163.032C710.88 166.13 712.9 170.372 713.169 175.758H703.978C703.776 172.863 702.598 170.54 700.443 168.789C698.356 167.039 695.528 166.163 691.959 166.163C688.66 166.163 686.034 166.87 684.081 168.284C682.128 169.698 681.152 171.55 681.152 173.839C681.152 175.657 681.724 177.172 682.869 178.384C684.081 179.529 685.562 180.472 687.313 181.212C689.131 181.886 691.622 182.66 694.787 183.535C698.76 184.613 701.992 185.69 704.483 186.767C706.974 187.777 709.095 189.326 710.846 191.413C712.664 193.501 713.607 196.228 713.674 199.594C713.674 202.624 712.832 205.351 711.149 207.775C709.466 210.199 707.075 212.118 703.978 213.532C700.948 214.879 697.447 215.552 693.474 215.552Z" fill="black"/>
<path d="M139.432 159.143L202.147 97.0922C207.449 91.9208 211.654 85.7807 214.524 79.0227C217.393 72.2647 218.87 65.0212 218.87 57.706C218.87 50.3908 217.393 43.1473 214.524 36.3893C211.654 29.6312 207.449 23.4911 202.147 18.3197C196.848 13.1459 190.556 9.04165 183.631 6.24146C176.707 3.44127 169.284 2 161.788 2C154.293 2 146.87 3.44127 139.945 6.24146C133.02 9.04165 126.729 13.1459 121.43 18.3197L110.432 29.0522L99.4346 18.3197C88.7308 7.87385 74.2134 2.00541 59.0759 2.00541C43.9384 2.00541 29.4209 7.87385 18.7171 18.3197C8.01334 28.7656 2 42.9333 2 57.706C2 72.4787 8.01334 86.6463 18.7171 97.0922L82.4321 159.143L18.7171 100.092C8.01334 89.6463 2 75.4787 2 60.706C2 45.9333 8.01334 31.7656 18.7171 21.3197C29.4209 10.8739 43.9384 5.00541 59.0759 5.00541C74.2134 5.00541 88.7308 10.8739 99.4346 21.3197L110.432 32.0522L121.43 21.3197C126.729 16.1459 133.02 12.0417 139.945 9.24146C146.87 6.44127 154.293 5 161.788 5C169.284 5 176.707 6.44127 183.631 9.24146C190.556 12.0417 196.848 16.1459 202.147 21.3197C207.449 26.4911 211.654 32.6312 214.524 39.3893C217.393 46.1473 218.87 53.3908 218.87 60.706C218.87 68.0212 217.393 75.2647 214.524 82.0227C211.654 88.7807 207.449 94.9208 202.147 100.092L139.432 159.143ZM139.432 159.143L111.432 183.143V209.143" stroke="#F9B00B" stroke-width="4" stroke-linecap="round" stroke-linejoin="round"/>
<path d="M82.9321 111.643V159.643" stroke="#F9B00B" stroke-width="4" stroke-linecap="round"/>
<path d="M124.932 111.643L124.932 141.643" stroke="#F9B00B" stroke-width="3" stroke-linecap="round"/>
<path d="M110.932 111.643V141.643" stroke="#F9B00B" stroke-width="3" stroke-linecap="round"/>
<path d="M95.9321 111.643V141.643" stroke="#F9B00B" stroke-width="3" stroke-linecap="round"/>
<path d="M138.932 111.643L138.932 159.643" stroke="#F9B00B" stroke-width="4" stroke-linecap="round"/>
</svg>
